<?xml version="1.0" encoding="UTF-8" standalone="no"?><!DOCTYPE svg PUBLIC "-//W3C//DTD SVG 1.1//EN" "http://www.w3.org/Graphics/SVG/1.1/DTD/svg11.dtd"><svg width="100%" height="100%" viewBox="0 0 9 9" version="1.1" xmlns="http://www.w3.org/2000/svg" xmlns:xlink="http://www.w3.org/1999/xlink" xml:space="preserve" style="fill-rule:evenodd;clip-rule:evenodd;stroke-linejoin:round;stroke-miterlimit:1.41421;"><path d="M4.5,3l4.5,0l0,6l-4.5,0l0,-6Zm-4.5,0l0,-3l4.5,0l0,3l-1.125,0l0,0.375l1.125,0l0,2.25l-1.125,0l0,0.75l1.125,0l0,2.25l-3.375,0l0,-5.625l-1.125,0Z" style="fill:#989898;"/><path d="M8.25,6.75l0,1.5l-3,0l0,-1.5l3,0Zm-4.5,-4.5l-1.125,0l0,1.875l1.125,0l0,0.75l-1.125,0l0,2.25l1.125,0l0,0.75l-1.125,0l-0.75,0l0,-5.625l-1.125,0l0,-1.5l3,0l0,1.5Zm1.5,1.5l3,0l0,1.5l-3,0l0,-1.5Z"/></svg>