<?xml version="1.0" encoding="UTF-8" standalone="no"?><!DOCTYPE svg PUBLIC "-//W3C//DTD SVG 1.1//EN" "http://www.w3.org/Graphics/SVG/1.1/DTD/svg11.dtd"><svg width="100%" height="100%" viewBox="0 0 12 12" version="1.1" xmlns="http://www.w3.org/2000/svg" xmlns:xlink="http://www.w3.org/1999/xlink" xml:space="preserve" style="fill-rule:evenodd;clip-rule:evenodd;stroke-linejoin:round;stroke-miterlimit:1.41421;">
<path d="M10.5,0.75l1.5,1.5c0,0 0,5.516 0,8.25c0,0.398 -0.158,0.779 -0.439,1.061c-0.282,0.281 -0.663,0.439 -1.061,0.439c-1.49,0 -3.76,0 -5.25,0c-0.398,0 -0.779,-0.158 -1.061,-0.439c-0.281,-0.282 -0.439,-0.663 -0.439,-1.061c0,-3.063 0,-9.75 0,-9.75l6.75,0Z" style="fill:#f6f6f6;"/>
<path id="FileBg" d="M11.25,3l0,7.5c0,0 -0.026,0.75 -0.776,0.75l-5.25,0c0,0 -0.724,0 -0.724,-0.75l0,-5.25l0.75,0l2.25,-3l0,-0.75l2.25,0l1.5,1.5Z" style="fill:#424242;fill-rule:nonzero;"/>
<path id="FileFg" d="M5.25,2.25l0,8.25l5.25,0l0,-6.75l-1.5,0l0,-1.5l-3.75,0" style="fill:#f6f6f6;"/>
<path d="M1.125,0l3.75,0l2.625,2.625l-2.625,2.625l-1.125,0l0,1.5c0,0 -0.495,0 -1.125,0c-1.45,0 -2.625,-1.175 -2.625,-2.625c0,-1.45 1.175,-2.625 2.625,-2.625c0,0 0,0 0,0l-1.5,-1.5Z" style="fill:#f6f6f6;"/>
<path id="ArrowFg" d="M4.5,0.75l-1.5,0l1.49,1.5c0,0 -0.932,0 -1.865,0c-0.497,0 -0.974,0.198 -1.326,0.549c-0.351,0.352 -0.549,0.829 -0.549,1.326c0,1.036 0.839,1.875 1.875,1.875c0.224,0 0.375,0 0.375,0l0,-0.75c0,0 -0.16,0 -0.375,0c-0.298,0 -0.584,-0.118 -0.795,-0.329c-0.211,-0.211 -0.33,-0.498 -0.33,-0.796c0,0 0,0 0,0c0,-0.298 0.119,-0.585 0.329,-0.795c0.211,-0.211 0.498,-0.33 0.796,-0.33c0.855,0 1.885,0 1.885,0l-1.51,1.5l1.5,0l1.875,-1.863l-1.875,-1.887Z" style="fill:#00539c;fill-rule:nonzero;"/></svg>