<?xml version="1.0" encoding="UTF-8" standalone="no"?><!DOCTYPE svg PUBLIC "-//W3C//DTD SVG 1.1//EN" "http://www.w3.org/Graphics/SVG/1.1/DTD/svg11.dtd"><svg width="100%" height="100%" viewBox="0 0 15 15" version="1.1" xmlns="http://www.w3.org/2000/svg" xmlns:xlink="http://www.w3.org/1999/xlink" xml:space="preserve" style="fill-rule:evenodd;clip-rule:evenodd;stroke-linejoin:round;stroke-miterlimit:1.41421;">
<path id="FolderOutline" d="M13.5,3c0.398,0 0.779,0.158 1.061,0.439c0.281,0.282 0.439,0.663 0.439,1.061c0,2.305 0,6.695 0,9c0,0.828 -0.672,1.5 -1.5,1.5c-3.37,0 -11.25,0 -11.25,0l-2.25,-5.25l0,-1.5l1.5,0l0,-3l3.75,-0.02l2.25,-2.23c0,0 3.811,0 6,0Z" style="fill:#ccc;"/>
<path id="FolderBg" d="M13.5,3.75c0.414,0 0.75,0.336 0.75,0.75c0,1.933 0,7.067 0,9c0,0.414 -0.336,0.75 -0.75,0.75c-2.402,0 -9.75,0 -9.75,0l-1.5,-3.75l0,-3l5.25,0l0,-3.75c0,0 4.241,0 6,0Z" style="fill:#dcb67a;"/>
<path id="FolderFg" d="M3.75,6.125l0,3.25l0.813,4.875l8.937,0l0,-9.75l-5.688,0l-1.625,1.625l-2.437,0Z" style="fill:#f2f2f2;"/>
<path id="FolderPan" d="M11.25,9l-10.5,0l2.25,5.25l10.5,0l-2.25,-5.25Z" style="fill:#dcb67a;"/>
<path id="ArrowOutline" d="M0,6c0,-0.995 0.395,-1.948 1.098,-2.652c0.704,-0.703 1.657,-1.098 2.652,-1.098c0.232,0 0.375,0 0.375,0l-2.25,-2.25l4.875,0l3.75,3.75l-3.75,3.75l-1.5,0l0,2.25c0,0 -0.654,0 -1.5,0c-0.995,0 -1.948,-0.395 -2.652,-1.098c-0.703,-0.704 -1.098,-1.657 -1.098,-2.652c0,0 0,0 0,0Z" style="fill:#ccc;"/>
<path id="ArrowFg" d="M0.75,6c0,-1.657 1.343,-3 3,-3c1.176,0 2.25,0 2.25,0l-2.25,-2.25l2.25,0l3,3l-3,3l-2.25,0l2.25,-2.25c0,0 -1.205,0 -2.248,0c-0.399,0 -0.781,0.158 -1.062,0.44c-0.282,0.281 -0.44,0.663 -0.44,1.062c0,0 0,0.001 0,0.001c0,0.397 0.158,0.778 0.438,1.059c0.281,0.28 0.662,0.438 1.059,0.438c0.414,0 0.753,0 0.753,0l0,1.5c0,0 -0.309,0 -0.75,0c-1.657,0 -3,-1.343 -3,-3c0,0 0,0 0,0Z" style="fill:#00539c;"/></svg>