<?xml version="1.0" encoding="UTF-8" standalone="no"?><!DOCTYPE svg PUBLIC "-//W3C//DTD SVG 1.1//EN" "http://www.w3.org/Graphics/SVG/1.1/DTD/svg11.dtd"><svg width="100%" height="100%" viewBox="0 0 16 16" version="1.1" xmlns="http://www.w3.org/2000/svg" xmlns:xlink="http://www.w3.org/1999/xlink" xml:space="preserve" style="fill-rule:evenodd;clip-rule:evenodd;stroke-linejoin:round;stroke-miterlimit:1.41421;">
<path id="FileOutline" d="M14,1l2,2c0,0 0,7.354 0,11c0,0.53 -0.211,1.039 -0.586,1.414c-0.375,0.375 -0.884,0.586 -1.414,0.586c-1.986,0 -5.014,0 -7,0c-0.53,0 -1.039,-0.211 -1.414,-0.586c-0.375,-0.375 -0.586,-0.884 -0.586,-1.414c0,-4.084 0,-13 0,-13l9,0Z" style="fill:#f6f6f6;"/>
<path id="FileBg" d="M15,4l0,10c0,0 -0.035,1 -1.035,1l-7,0c0,0 -0.965,0 -0.965,-1l0,-5l1,0l3,-6l0,-1l3,0l2,2Z" style="fill:#424242;fill-rule:nonzero;"/>
<path id="FileFg" d="M7,3l0,11l7,0l0,-9l-2,0l0,-2l-5,0" style="fill:#f6f6f6;"/>
<path id="StarOutline" d="M3,0.879l0,-0.879l3,0l0,0.879l0.621,-0.622l2.122,2.122l-0.622,0.621l0.879,0l0,3l-0.879,0l0.622,0.621l-2.122,2.122l-0.621,-0.622l0,0.879l-3,0l0,-0.879l-0.621,0.622l-2.122,-2.122l0.622,-0.621l-0.879,0l0,-3l0.879,0l-0.622,-0.621l2.122,-2.122l0.621,0.622Z" style="fill:#ebebeb;"/>
<path id="StarFg" d="M5,5l-1,0l0,-1l1,0l0,1Zm3,-1l-2.293,0l1.621,-1.621l-0.707,-0.708l-1.621,1.621l0,-2.292l-1,0l0,2.292l-1.621,-1.621l-0.708,0.708l1.621,1.621l-2.292,0l0,1l2.292,0l-1.621,1.621l0.708,0.707l1.621,-1.621l0,2.293l1,0l0,-2.293l1.621,1.621l0.707,-0.707l-1.621,-1.621l2.293,0l0,-1Z" style="fill:#c27d1a;fill-rule:nonzero;"/></svg>