<?xml version="1.0" encoding="UTF-8" standalone="no"?><!DOCTYPE svg PUBLIC "-//W3C//DTD SVG 1.1//EN" "http://www.w3.org/Graphics/SVG/1.1/DTD/svg11.dtd"><svg width="100%" height="100%" viewBox="0 0 16 16" version="1.1" xmlns="http://www.w3.org/2000/svg" xmlns:xlink="http://www.w3.org/1999/xlink" xml:space="preserve" style="fill-rule:evenodd;clip-rule:evenodd;stroke-linejoin:round;stroke-miterlimit:1.41421;">
<path id="ToolbarOutline" d="M16,2l-16,0l0,11l16,0l0,-11Z" style="fill:#ebebeb;"/>
<path id="ToolbarBg" d="M15,4l0,-1l-14,0l0,9l14,0l0,-1l-11,0l0,-7l11,0Z" style="fill:#424242;"/>
<path id="ToolbarFile" d="M8,5l1,1l0,4l-4,0l0,-5l3,0Zm-1,2l0,-1l-1,0l0,3l2,0l0,-2l-1,0Z" style="fill:#424242;"/>
<path id="ToolbarSave" d="M14,6l0,4l-4,0l0,-5l1,0l0,2l1,0l0,-2l1,0l1,1Z" style="fill:#424242;"/>
<path id="ToolbarHoles" d="M3,10l-1,0l0,-1l1,0l0,1Zm0,-2l-1,0l0,-1l1,0l0,1Zm0,-2l-1,0l0,-1l1,0l0,1Z" style="fill:#ebebeb;"/></svg>