<?xml version="1.0" encoding="UTF-8" standalone="no"?>
<!DOCTYPE svg PUBLIC "-//W3C//DTD SVG 1.1//EN" "http://www.w3.org/Graphics/SVG/1.1/DTD/svg11.dtd">
<svg width="100%" height="100%" viewBox="0 0 16 16" version="1.1" xmlns="http://www.w3.org/2000/svg" xmlns:xlink="http://www.w3.org/1999/xlink" xml:space="preserve" style="fill-rule:evenodd;clip-rule:evenodd;stroke-linejoin:round;stroke-miterlimit:1.41421;">
    <path id="FileOutline" d="M4,15L4,1L12,1L16,4.5L16,15L4,15Z" style="fill:rgb(246,246,246);fill-rule:nonzero;"/>
    <path id="FileBg" d="M11.5,2L5,2L5,14L15,14L15,5L11.5,2Z" style="fill:rgb(66,66,66);fill-rule:nonzero;"/>
    <path id="FileFg" d="M11,6L11,3L6,3L6,13L14,13L14,6L11,6Z" style="fill:rgb(240,239,241);fill-rule:nonzero;"/>
    <rect id="TextBg" x="0" y="9" width="14" height="7" style="fill:rgb(235,235,235);"/>
    <path id="M" d="M4.162,15L4.069,12.173L4.035,11.044L3.792,11.809L3.232,13.512L2.637,13.512L2.131,11.809L1.919,11.044L1.892,12.15L1.807,15L1,15L1.247,10L2.32,10L2.764,11.419L2.977,12.219L3.189,11.465L3.656,10L4.749,10L5,15L4.162,15Z" style="fill:rgb(0,8,204);fill-rule:nonzero;"/>
    <path id="C" d="M9,14.743C8.78,14.83 8.567,14.895 8.36,14.937C8.154,14.979 7.94,15 7.717,15C7.36,15 7.044,14.948 6.77,14.845C6.495,14.742 6.264,14.589 6.075,14.386C5.887,14.182 5.744,13.93 5.646,13.628C5.549,13.327 5.5,12.976 5.5,12.576C5.5,12.167 5.553,11.803 5.659,11.484C5.766,11.165 5.918,10.895 6.115,10.676C6.312,10.456 6.552,10.289 6.834,10.173C7.117,10.058 7.433,10 7.785,10C7.899,10 8.006,10.002 8.106,10.007C8.206,10.012 8.304,10.022 8.4,10.035C8.496,10.049 8.594,10.067 8.693,10.089C8.791,10.112 8.894,10.14 9,10.175L9,11.083C8.785,10.984 8.58,10.913 8.385,10.871C8.19,10.829 8.013,10.808 7.854,10.808C7.618,10.808 7.417,10.849 7.25,10.933C7.083,11.016 6.946,11.132 6.838,11.283C6.731,11.433 6.651,11.611 6.601,11.819C6.55,12.026 6.525,12.254 6.525,12.502C6.525,12.765 6.551,13 6.603,13.207C6.655,13.415 6.735,13.59 6.844,13.734C6.953,13.878 7.092,13.988 7.261,14.064C7.431,14.139 7.632,14.177 7.865,14.177C7.948,14.177 8.039,14.169 8.136,14.153C8.234,14.137 8.333,14.116 8.432,14.09C8.532,14.064 8.631,14.033 8.729,13.997C8.826,13.961 8.916,13.924 9,13.887L9,14.743Z" style="fill:rgb(0,8,204);fill-rule:nonzero;"/>
    <path id="R" d="M12.433,15L11.754,13.393C11.69,13.24 11.6,13.125 11.486,13.047C11.372,12.969 11.237,12.93 11.082,12.93L10.908,12.93L10.908,15L10,15L10,10L11.407,10C11.672,10 11.914,10.024 12.13,10.071C12.347,10.118 12.531,10.196 12.684,10.306C12.837,10.416 12.954,10.559 13.037,10.735C13.119,10.91 13.16,11.126 13.16,11.381C13.16,11.565 13.134,11.728 13.083,11.871C13.031,12.014 12.959,12.137 12.865,12.24C12.771,12.343 12.66,12.427 12.531,12.49C12.402,12.554 12.261,12.599 12.108,12.624C12.226,12.65 12.335,12.719 12.433,12.833C12.531,12.946 12.63,13.11 12.728,13.324L13.5,15L12.433,15ZM12.208,11.473C12.208,11.228 12.133,11.052 11.983,10.945C11.832,10.838 11.607,10.784 11.307,10.784L10.908,10.784L10.908,12.196L11.277,12.196C11.418,12.196 11.545,12.181 11.66,12.15C11.774,12.119 11.872,12.073 11.953,12.012C12.034,11.951 12.097,11.875 12.141,11.785C12.186,11.694 12.208,11.59 12.208,11.473Z" style="fill:rgb(0,8,204);fill-rule:nonzero;"/>
</svg>
