<?xml version="1.0" encoding="UTF-8" standalone="no"?><!DOCTYPE svg PUBLIC "-//W3C//DTD SVG 1.1//EN" "http://www.w3.org/Graphics/SVG/1.1/DTD/svg11.dtd"><svg width="100%" height="100%" viewBox="0 0 12 12" version="1.1" xmlns="http://www.w3.org/2000/svg" xmlns:xlink="http://www.w3.org/1999/xlink" xml:space="preserve" style="fill-rule:evenodd;clip-rule:evenodd;stroke-linejoin:round;stroke-miterlimit:1.41421;"><path d="M5.25,3.75l-1.5,0l0,0.75l3,0l0,-0.75l5.25,0l0,3.75l-5.25,0l0,-0.75l-3,0l0,2.25l3,0l0,-0.75l5.25,0l0,3.75l-5.25,0l0,-0.75l-5.25,0l0,-7.5l-1.5,0l0,-3.75l5.25,0l0,3.75Z" style="fill:#c6c6c6;"/><path d="M7.5,9l3.75,0l0,2.25l-3.75,0l0,-2.25Zm-5.25,-6l-1.5,0l0,-2.25l3.75,0l0,2.25l-1.5,0l0,2.25l3,0l0,0.75l-3,0l0,3.75l3,0l0,0.75l-3.75,0l0,-7.5Zm5.25,1.5l3.75,0l0,2.25l-3.75,0l0,-2.25Z"/></svg>