<?xml version="1.0" encoding="UTF-8" standalone="no"?><!DOCTYPE svg PUBLIC "-//W3C//DTD SVG 1.1//EN" "http://www.w3.org/Graphics/SVG/1.1/DTD/svg11.dtd"><svg width="100%" height="100%" viewBox="0 0 14 14" version="1.1" xmlns="http://www.w3.org/2000/svg" xmlns:xlink="http://www.w3.org/1999/xlink" xml:space="preserve" style="fill-rule:evenodd;clip-rule:evenodd;stroke-linejoin:round;stroke-miterlimit:1.41421;"><path id="TvOutline" d="M2.25,3.75l2.25,0l0,1.5l3,0l0,-0.75l6,0l0,3.75l-6,0l0,-0.75l-3,0l0,3l3,0l0,-0.75l6,0l0,3.75l-6,0l0,-0.75l-5.25,0l0,-2.25l0,-6.75Zm-2.25,-3.75l6.75,0l0,3.75l-6.75,0l0,-3.75Z" style="fill:#d4d4d4;"/><path id="TvFg" d="M12.75,10.5l0,2.25l-4.5,0l0,-2.25l4.5,0Zm-12,-9.75l5.25,0l0,2.25l-2.25,0l0,3l3,0l0,0.75l-3,0l0,4.5l3,0l0,0.75l-3.75,0l0,-5.25l0,-0.75l0,-3l-2.25,0l0,-2.25Zm7.5,4.5l4.5,0l0,2.25l-4.5,0l0,-2.25Z"/></svg>