<?xml version="1.0" encoding="UTF-8" standalone="no"?>
<!DOCTYPE svg PUBLIC "-//W3C//DTD SVG 1.1//EN" "http://www.w3.org/Graphics/SVG/1.1/DTD/svg11.dtd">
<svg width="100%" height="100%" viewBox="0 0 20 20" version="1.1" xmlns="http://www.w3.org/2000/svg" xmlns:xlink="http://www.w3.org/1999/xlink" xml:space="preserve" style="fill-rule:evenodd;clip-rule:evenodd;stroke-linejoin:round;stroke-miterlimit:1.41421;">
    <path id="MenuOutline" d="M1,1L1,19L19,19L19,5.001L13,5.001L13,1L1,1Z" style="fill:rgb(246,246,246);"/>
    <path id="MenuBg" d="M2,18L18,18L18,6L12,6L12,2L2,2L2,18Z" style="fill:rgb(66,66,66);"/>
    <path id="MenuFg" d="M17,17L3,17L3,3L11,3L11,7L17,7L17,17Z" style="fill:white;"/>
    <path id="MenuLines" d="M13,15L7,15L7,14L13,14L13,15ZM15,11L7,11L7,10L15,10L15,11ZM10,5L4,5L4,4L10,4L10,5Z" style="fill:rgb(66,66,66);"/>
    <path id="MenuDots" d="M6,14L6,15L4,15L4,14L6,14ZM6,10L6,11L4,11L4,10L6,10Z" style="fill:rgb(13,40,242);"/>
</svg>
