<?xml version="1.0" encoding="UTF-8" standalone="no"?>
<!DOCTYPE svg PUBLIC "-//W3C//DTD SVG 1.1//EN" "http://www.w3.org/Graphics/SVG/1.1/DTD/svg11.dtd">
<svg width="100%" height="100%" viewBox="0 0 16 16" version="1.1" xmlns="http://www.w3.org/2000/svg" xmlns:xlink="http://www.w3.org/1999/xlink" xml:space="preserve" style="fill-rule:evenodd;clip-rule:evenodd;stroke-linejoin:round;stroke-miterlimit:1.41421;">
    <path id="MenuOutline" d="M0,0L0,16L16,16L16,4.001L11,4.001L11,0L0,0Z" style="fill:rgb(246,246,246);fill-rule:nonzero;"/>
    <path id="MenuBg" d="M1,15L15,15L15,5L10,5L10,1L1,1L1,15Z" style="fill:rgb(66,66,66);"/>
    <path id="MenuFg" d="M14,14L2,14L2,2L9,2L9,6L14,6L14,14Z" style="fill:rgb(246,246,246);"/>
    <path id="MenuLines" d="M6,11L11,11L11,12L6,12L6,11ZM6,8L13,8L13,9L6,9L6,8ZM8,4L3,4L3,3L8,3L8,4Z" style="fill:rgb(66,66,66);"/>
    <path id="MenuDots" d="M5,11L5,12L3,12L3,11L5,11ZM5,8L5,9L3,9L3,8L5,8Z" style="fill:rgb(13,40,242);"/>
</svg>
