<?xml version="1.0" encoding="UTF-8" standalone="no"?>
<!DOCTYPE svg PUBLIC "-//W3C//DTD SVG 1.1//EN" "http://www.w3.org/Graphics/SVG/1.1/DTD/svg11.dtd">
<svg width="100%" height="100%" viewBox="0 0 16 16" version="1.1" xmlns="http://www.w3.org/2000/svg" xmlns:xlink="http://www.w3.org/1999/xlink" xml:space="preserve" style="fill-rule:evenodd;clip-rule:evenodd;stroke-linejoin:round;stroke-miterlimit:1.41421;">
    <path id="Bg" d="M8.72,4.001C8.896,4.004 9.072,4.009 9.247,4.027C9.425,4.044 9.601,4.073 9.775,4.111C9.9,4.138 10.029,4.165 10.149,4.21C10.245,4.245 10.331,4.292 10.417,4.346C10.449,4.317 10.481,4.29 10.515,4.264C10.673,4.147 10.852,4.064 11.045,4.025C11.121,4.01 11.198,4.004 11.275,4L12.613,4C13.24,4.007 13.885,4.09 14.435,4.413C14.537,4.472 14.635,4.54 14.728,4.614C15.072,4.891 15.327,5.269 15.467,5.688C15.563,5.975 15.605,6.278 15.611,6.581C15.619,6.991 15.556,7.399 15.388,7.776C15.313,7.946 15.217,8.107 15.103,8.254C15.057,8.312 15.009,8.367 14.959,8.422L14.958,8.423L14.983,8.474C15.24,9.044 15.486,9.619 15.738,10.192C15.797,10.339 15.834,10.49 15.84,10.648C15.86,11.139 15.592,11.61 15.16,11.844C14.992,11.935 14.812,11.98 14.623,11.998C14.403,12.005 14.184,12 13.964,12C13.872,11.997 13.782,11.988 13.692,11.968C13.443,11.91 13.213,11.779 13.038,11.593C12.97,11.522 12.916,11.444 12.863,11.362L12.86,11.356C12.838,11.394 12.813,11.431 12.788,11.467C12.763,11.5 12.737,11.532 12.709,11.563C12.524,11.767 12.282,11.914 12.011,11.972C11.942,11.986 11.874,11.993 11.804,11.999C11.628,12.003 11.452,12 11.275,12C11.198,11.996 11.121,11.99 11.045,11.975C10.879,11.942 10.72,11.875 10.579,11.782C10.507,11.734 10.443,11.678 10.381,11.619L10.366,11.604L10.331,11.625L10.241,11.671L10.159,11.705C10.071,11.735 9.982,11.765 9.894,11.793C9.719,11.845 9.543,11.892 9.363,11.925C9.058,11.982 8.748,12.005 8.438,11.999C7.796,11.987 7.151,11.841 6.598,11.504C6.365,11.362 6.158,11.188 5.968,10.992L5.957,10.979C5.943,11.039 5.942,11.039 5.925,11.098C5.904,11.16 5.904,11.159 5.879,11.22C5.833,11.319 5.78,11.413 5.712,11.5C5.55,11.707 5.326,11.863 5.075,11.941C4.97,11.974 4.863,11.99 4.753,11.999C4.598,12.003 4.443,12 4.287,12C4.16,11.997 4.036,11.979 3.914,11.941C3.552,11.829 3.25,11.556 3.102,11.206C3.043,11.065 3.013,10.918 3.001,10.766C3.001,10.748 3,10.73 3,10.713C3,10.547 3,10.713 3,10.713C2.998,10.772 2.998,10.772 2.994,10.832C2.977,10.961 2.948,11.086 2.898,11.206C2.767,11.515 2.515,11.767 2.206,11.898C2.065,11.957 1.918,11.987 1.766,11.999C1.611,12.003 1.455,12 1.3,12C1.15,11.996 1.004,11.972 0.863,11.92C0.512,11.791 0.229,11.51 0.096,11.16C0.042,11.016 0.018,10.867 0.012,10.713C0.041,8.881 0.162,7.052 0.237,5.222C0.252,5.061 0.286,4.906 0.353,4.758C0.508,4.422 0.805,4.162 1.159,4.055C1.274,4.021 1.391,4.006 1.51,4L2.108,4C2.196,4.004 2.214,4.002 2.306,4.018C2.481,4.047 2.65,4.114 2.8,4.211C2.878,4.263 2.894,4.28 2.966,4.341L2.989,4.364L3.008,4.345L3.089,4.276C3.166,4.221 3.184,4.205 3.266,4.159C3.392,4.09 3.53,4.042 3.672,4.018C3.764,4.002 3.782,4.004 3.87,4L4.486,4C4.647,4.008 4.804,4.035 4.954,4.097C5.296,4.237 5.568,4.524 5.689,4.873C5.717,4.952 5.737,5.035 5.749,5.118C5.761,5.207 5.762,5.297 5.766,5.386C5.803,5.333 5.843,5.283 5.883,5.232C6.042,5.041 6.216,4.865 6.412,4.712C6.806,4.405 7.27,4.195 7.758,4.089C8.007,4.034 8.26,4.009 8.515,4.001C8.618,4 8.617,4 8.72,4.001Z" style="fill:rgb(166,166,166);fill-rule:nonzero;"/>
    <path id="Fg" d="M2,10.7C2,10.866 1.866,11 1.7,11C1.578,11 1.436,11 1.313,11C1.231,11 1.153,10.967 1.096,10.908C1.04,10.849 1.01,10.769 1.013,10.688C1.056,9.645 1.194,6.293 1.235,5.288C1.242,5.127 1.374,5 1.535,5C1.708,5 1.925,5 2.087,5C2.225,5 2.344,5.093 2.378,5.226C2.494,5.681 2.757,6.712 2.901,7.276C2.913,7.321 2.953,7.352 2.999,7.352C3.045,7.351 3.084,7.32 3.095,7.276C3.234,6.712 3.488,5.684 3.6,5.228C3.633,5.094 3.753,5 3.891,5C4.058,5 4.284,5 4.461,5C4.622,5 4.754,5.127 4.761,5.287C4.803,6.292 4.943,9.644 4.987,10.687C4.99,10.769 4.96,10.849 4.904,10.908C4.847,10.967 4.769,11 4.687,11C4.564,11 4.422,11 4.3,11C4.134,11 4,10.866 4,10.7C4,10.055 4,8.525 4,7.648C4,7.599 3.964,7.557 3.915,7.549C3.866,7.542 3.82,7.571 3.805,7.618C3.658,8.082 3.466,8.69 3.366,9.005C3.327,9.129 3.211,9.214 3.08,9.214C3.028,9.214 2.972,9.214 2.92,9.214C2.789,9.214 2.673,9.129 2.634,9.005C2.534,8.69 2.342,8.082 2.195,7.618C2.18,7.571 2.134,7.542 2.085,7.549C2.036,7.557 2,7.599 2,7.648C2,8.525 2,10.055 2,10.7ZM10,10.487C10,10.613 9.922,10.726 9.803,10.769C9.621,10.835 9.443,10.887 9.269,10.924C9.033,10.975 8.788,11 8.534,11C8.126,11 7.765,10.938 7.451,10.815C7.137,10.691 6.873,10.507 6.657,10.263C6.442,10.019 6.278,9.716 6.167,9.354C6.056,8.992 6,8.571 6,8.092C6,7.6 6.061,7.163 6.182,6.78C6.304,6.398 6.477,6.074 6.703,5.811C6.928,5.547 7.202,5.346 7.525,5.208C7.847,5.069 8.21,5 8.612,5C8.742,5 8.864,5.003 8.978,5.009C9.093,5.015 9.205,5.026 9.315,5.042C9.424,5.059 9.536,5.08 9.649,5.107C9.692,5.117 9.735,5.129 9.78,5.141C9.91,5.177 10,5.295 10,5.43C10,5.551 10,5.706 10,5.851C10,5.948 9.953,6.038 9.874,6.094C9.796,6.15 9.695,6.165 9.603,6.134C9.499,6.098 9.397,6.068 9.297,6.045C9.074,5.995 8.872,5.969 8.69,5.969C8.421,5.969 8.191,6.019 8,6.119C7.809,6.219 7.652,6.359 7.529,6.539C7.406,6.719 7.316,6.934 7.258,7.182C7.2,7.431 7.171,7.704 7.171,8.002C7.171,8.318 7.201,8.6 7.26,8.849C7.32,9.098 7.411,9.308 7.536,9.481C7.66,9.654 7.819,9.786 8.013,9.876C8.207,9.967 8.437,10.013 8.703,10.013C8.798,10.013 8.902,10.003 9.013,9.984C9.124,9.964 9.237,9.939 9.351,9.908C9.466,9.876 9.578,9.839 9.69,9.796C9.69,9.796 9.69,9.796 9.691,9.796C9.761,9.768 9.839,9.778 9.901,9.82C9.963,9.862 10,9.932 10,10.007C10,10.166 10,10.35 10,10.487ZM12.038,10.7C12.038,10.866 11.904,11 11.738,11C11.6,11 11.438,11 11.3,11C11.22,11 11.144,10.968 11.088,10.912C11.032,10.856 11,10.78 11,10.7C11,9.676 11,6.324 11,5.3C11,5.22 11.032,5.144 11.088,5.088C11.144,5.032 11.22,5 11.3,5C11.765,5 12.608,5 12.608,5C12.911,5 13.187,5.028 13.435,5.085C13.682,5.142 13.893,5.236 14.068,5.367C14.242,5.499 14.376,5.67 14.47,5.881C14.565,6.093 14.612,6.351 14.612,6.657C14.612,6.878 14.582,7.073 14.523,7.245C14.464,7.416 14.381,7.564 14.274,7.688C14.167,7.812 14.04,7.912 13.892,7.989C13.882,7.994 13.872,7.999 13.862,8.004C13.792,8.039 13.742,8.104 13.726,8.18C13.71,8.257 13.73,8.336 13.779,8.396C13.779,8.398 13.78,8.399 13.781,8.399C13.893,8.536 14.006,8.732 14.118,8.989C14.118,8.989 14.557,9.99 14.816,10.58C14.856,10.672 14.847,10.779 14.792,10.864C14.737,10.949 14.642,11 14.541,11C14.349,11 14.135,11 13.983,11C13.861,11 13.751,10.926 13.705,10.812C13.51,10.327 13.004,9.072 13.004,9.072C12.931,8.888 12.829,8.75 12.698,8.656C12.568,8.563 12.414,8.516 12.236,8.516C12.236,8.516 12.236,8.516 12.236,8.516C12.127,8.516 12.038,8.605 12.038,8.714C12.038,9.148 12.038,10.186 12.038,10.7ZM12.494,5.941C12.494,5.941 12.423,5.941 12.338,5.941C12.172,5.941 12.038,6.075 12.038,6.241C12.038,6.549 12.038,7.027 12.038,7.335C12.038,7.415 12.07,7.491 12.126,7.547C12.182,7.603 12.258,7.635 12.338,7.635C12.407,7.635 12.46,7.635 12.46,7.635C12.62,7.635 12.766,7.617 12.897,7.58C13.027,7.543 13.139,7.488 13.232,7.415C13.325,7.341 13.397,7.25 13.447,7.142C13.498,7.033 13.523,6.908 13.523,6.767C13.523,6.474 13.437,6.262 13.266,6.134C13.094,6.005 12.837,5.941 12.494,5.941Z"/>
</svg>
