<?xml version="1.0" encoding="UTF-8" standalone="no"?>
<!DOCTYPE svg PUBLIC "-//W3C//DTD SVG 1.1//EN" "http://www.w3.org/Graphics/SVG/1.1/DTD/svg11.dtd">
<svg width="100%" height="100%" viewBox="0 0 16 16" version="1.1" xmlns="http://www.w3.org/2000/svg" xmlns:xlink="http://www.w3.org/1999/xlink" xml:space="preserve" style="fill-rule:evenodd;clip-rule:evenodd;stroke-linejoin:round;stroke-miterlimit:1.41421;">
    <path id="Bg" d="M5.578,10.095L5.1,10.095C5.029,10.092 5.015,10.093 4.94,10.082C4.865,10.07 4.848,10.063 4.777,10.043L4.749,11.044C4.738,11.169 4.712,11.29 4.657,11.405C4.546,11.636 4.339,11.823 4.088,11.92C3.977,11.963 3.86,11.986 3.741,11.994C3.511,12.005 3.281,11.996 3.05,11.996C2.949,11.992 2.849,11.979 2.751,11.951C2.439,11.859 2.183,11.634 2.068,11.348C2.019,11.227 2.001,11.101 2,10.972L2.3,4.943C2.313,4.82 2.341,4.701 2.397,4.589C2.51,4.361 2.716,4.179 2.965,4.084C3.074,4.042 3.189,4.02 3.307,4.012C3.695,3.994 4.085,3.998 4.473,4.013C4.59,4.026 4.702,4.048 4.811,4.092C5.095,4.207 5.311,4.433 5.406,4.706L5.424,4.654C5.47,4.554 5.523,4.46 5.598,4.375C5.743,4.21 5.944,4.091 6.166,4.039C6.247,4.021 6.327,4.013 6.41,4.01L7.488,4.01C7.621,4.016 7.749,4.037 7.872,4.084C8.121,4.178 8.327,4.361 8.44,4.588C8.49,4.688 8.519,4.794 8.533,4.903C8.54,4.964 8.546,5.026 8.552,5.088C8.689,4.913 8.852,4.756 9.035,4.623C9.396,4.36 9.832,4.186 10.28,4.096C10.561,4.039 10.848,4.017 11.135,4.011C11.237,4.01 11.236,4.01 11.338,4.011C11.672,4.022 12.005,4.055 12.335,4.11C12.437,4.126 12.538,4.146 12.639,4.167C12.73,4.186 12.818,4.205 12.904,4.239C13.178,4.349 13.394,4.564 13.493,4.826C13.532,4.928 13.548,5.032 13.553,5.14L13.553,5.797C13.549,5.931 13.522,6.06 13.464,6.182C13.313,6.505 12.981,6.735 12.604,6.775C12.501,6.786 12.397,6.784 12.295,6.767C12.191,6.75 12.09,6.718 11.987,6.693C11.911,6.677 11.912,6.677 11.836,6.662C11.76,6.649 11.761,6.649 11.685,6.637L11.67,6.635C11.802,6.684 11.933,6.736 12.063,6.788C12.144,6.822 12.225,6.857 12.305,6.893C12.49,6.98 12.674,7.071 12.845,7.181C13.165,7.387 13.444,7.65 13.643,7.962C13.749,8.126 13.834,8.302 13.893,8.486C13.977,8.75 14.006,9.027 13.999,9.302C13.993,9.588 13.95,9.874 13.857,10.147C13.69,10.639 13.361,11.078 12.917,11.387C12.815,11.458 12.708,11.523 12.598,11.58C12.128,11.825 11.592,11.944 11.058,11.982C10.794,12.001 10.529,11.999 10.266,11.987C10.014,11.976 9.762,11.954 9.513,11.918C9.255,11.88 9.003,11.825 8.752,11.759L8.681,11.737C8.637,11.719 8.594,11.7 8.553,11.679C8.452,11.78 8.329,11.861 8.192,11.916C8.078,11.961 7.958,11.986 7.836,11.994C7.592,12.006 7.348,11.996 7.104,11.996C7.005,11.992 6.908,11.98 6.813,11.953C6.519,11.87 6.272,11.668 6.147,11.407C6.091,11.293 6.064,11.172 6.054,11.048L6.02,9.999L5.98,10.016L5.901,10.044C5.828,10.064 5.809,10.071 5.734,10.082C5.661,10.093 5.647,10.092 5.578,10.095Z" style="fill:rgb(179,179,179);"/>
    <path id="Fg" d="M7.149,11C7.036,11 6.944,10.919 6.941,10.818C6.921,10.225 6.857,8.317 6.818,7.164C6.815,7.091 6.754,7.03 6.673,7.02C6.592,7.01 6.515,7.054 6.492,7.125C6.254,7.824 5.942,8.743 5.828,9.081C5.801,9.16 5.72,9.214 5.628,9.214C5.502,9.214 5.325,9.214 5.198,9.214C5.104,9.214 5.021,9.158 4.997,9.076C4.898,8.751 4.644,7.913 4.438,7.234C4.416,7.163 4.339,7.116 4.257,7.125C4.175,7.134 4.112,7.195 4.11,7.27C4.076,8.43 4.022,10.241 4.005,10.817C4.002,10.919 3.91,11 3.797,11C3.626,11 3.383,11 3.209,11C3.152,11 3.097,10.979 3.058,10.942C3.018,10.905 2.998,10.855 3,10.804C3.047,9.89 3.245,6.055 3.29,5.179C3.295,5.079 3.387,5 3.498,5C3.767,5 4.238,5 4.484,5C4.577,5 4.66,5.056 4.685,5.137C4.798,5.505 5.113,6.525 5.306,7.15C5.326,7.215 5.391,7.26 5.466,7.26C5.54,7.261 5.606,7.216 5.627,7.152C5.827,6.525 6.154,5.502 6.271,5.136C6.296,5.055 6.378,5 6.471,5C6.721,5 7.208,5 7.482,5C7.593,5 7.685,5.079 7.69,5.179C7.736,6.055 7.937,9.889 7.985,10.804C7.987,10.855 7.967,10.905 7.927,10.942C7.888,10.979 7.833,11 7.776,11C7.592,11 7.329,11 7.149,11ZM13,9.145C13,9.462 12.94,9.737 12.821,9.97C12.702,10.204 12.536,10.397 12.321,10.55C12.107,10.702 11.853,10.815 11.557,10.889C11.261,10.963 10.939,11 10.589,11C10.278,11 9.978,10.982 9.689,10.947C9.45,10.917 9.213,10.872 8.979,10.811C8.89,10.787 8.829,10.714 8.829,10.631C8.829,10.461 8.829,10.17 8.829,9.956C8.829,9.896 8.862,9.84 8.916,9.805C8.97,9.769 9.04,9.76 9.103,9.779C9.156,9.794 9.209,9.809 9.263,9.824C9.414,9.865 9.566,9.902 9.718,9.933C9.87,9.964 10.022,9.988 10.173,10.006C10.324,10.024 10.47,10.033 10.612,10.033C10.823,10.033 11.002,10.015 11.15,9.979C11.298,9.944 11.418,9.895 11.512,9.833C11.605,9.771 11.673,9.697 11.715,9.611C11.758,9.525 11.779,9.43 11.779,9.327C11.779,9.185 11.737,9.066 11.654,8.97C11.571,8.874 11.462,8.788 11.326,8.714C11.191,8.641 11.036,8.574 10.863,8.515C10.689,8.456 10.513,8.392 10.333,8.324C10.154,8.256 9.977,8.179 9.804,8.093C9.631,8.007 9.476,7.901 9.34,7.774C9.205,7.646 9.095,7.495 9.012,7.319C8.929,7.143 8.888,6.93 8.888,6.682C8.888,6.454 8.93,6.238 9.015,6.034C9.099,5.83 9.232,5.652 9.413,5.499C9.594,5.347 9.826,5.226 10.109,5.135C10.393,5.045 10.735,5 11.136,5C11.254,5 11.377,5.005 11.505,5.016C11.633,5.026 11.76,5.039 11.885,5.055C12.01,5.072 12.131,5.091 12.247,5.113C12.302,5.124 12.355,5.134 12.406,5.145C12.5,5.166 12.566,5.241 12.566,5.328C12.566,5.482 12.566,5.728 12.566,5.916C12.565,5.975 12.534,6.031 12.481,6.066C12.428,6.101 12.36,6.112 12.297,6.095C12.281,6.091 12.265,6.087 12.249,6.083C12.134,6.053 12.016,6.027 11.894,6.005C11.772,5.983 11.649,5.966 11.525,5.954C11.402,5.942 11.284,5.936 11.172,5.936C10.976,5.936 10.811,5.952 10.675,5.983C10.539,6.014 10.428,6.057 10.34,6.112C10.253,6.166 10.189,6.234 10.15,6.314C10.111,6.393 10.091,6.482 10.091,6.58C10.091,6.701 10.133,6.805 10.216,6.893C10.299,6.98 10.409,7.058 10.546,7.128C10.683,7.197 10.838,7.263 11.012,7.323C11.185,7.384 11.363,7.449 11.546,7.518C11.728,7.588 11.906,7.667 12.079,7.756C12.253,7.845 12.408,7.953 12.545,8.08C12.683,8.207 12.793,8.357 12.876,8.53C12.959,8.703 13,8.908 13,9.145Z"/>
</svg>
