<?xml version="1.0" encoding="UTF-8" standalone="no"?>
<!DOCTYPE svg PUBLIC "-//W3C//DTD SVG 1.1//EN" "http://www.w3.org/Graphics/SVG/1.1/DTD/svg11.dtd">
<svg width="100%" height="100%" viewBox="0 0 16 16" version="1.1" xmlns="http://www.w3.org/2000/svg" xmlns:xlink="http://www.w3.org/1999/xlink" xml:space="preserve" style="fill-rule:evenodd;clip-rule:evenodd;stroke-linejoin:round;stroke-miterlimit:1.41421;">
    <path id="FileOutline" d="M4,15L4,1L12,1L16,4.5L16,15L4,15Z" style="fill:rgb(246,246,246);fill-rule:nonzero;"/>
    <path id="FileBg" d="M11.5,2L5,2L5,14L15,14L15,5L11.5,2Z" style="fill:rgb(66,66,66);fill-rule:nonzero;"/>
    <path id="FileFg" d="M11,6L11,3L6,3L6,13L14,13L14,6L11,6Z" style="fill:rgb(240,239,241);fill-rule:nonzero;"/>
    <rect id="TextBg" x="0" y="9" width="10" height="7" style="fill:rgb(235,235,235);"/>
    <path id="M" d="M4.162,15L4.069,12.173L4.035,11.044L3.792,11.809L3.232,13.512L2.637,13.512L2.131,11.809L1.919,11.044L1.892,12.15L1.807,15L1,15L1.247,10L2.32,10L2.764,11.419L2.977,12.219L3.189,11.465L3.656,10L4.749,10L5,15L4.162,15Z" style="fill:rgb(0,8,204);fill-rule:nonzero;"/>
    <path id="S" d="M9,13.454C9,13.718 8.95,13.947 8.85,14.142C8.75,14.337 8.61,14.498 8.431,14.625C8.251,14.752 8.037,14.846 7.789,14.908C7.541,14.969 7.27,15 6.977,15C6.716,15 6.464,14.985 6.221,14.956C5.978,14.926 5.738,14.877 5.5,14.808L5.5,13.909C5.616,13.948 5.738,13.985 5.864,14.02C5.991,14.054 6.118,14.085 6.246,14.111C6.374,14.136 6.501,14.157 6.627,14.172C6.754,14.186 6.877,14.194 6.996,14.194C7.173,14.194 7.323,14.179 7.447,14.149C7.571,14.12 7.673,14.079 7.751,14.027C7.83,13.976 7.886,13.914 7.922,13.842C7.957,13.771 7.975,13.692 7.975,13.606C7.975,13.487 7.94,13.388 7.871,13.308C7.801,13.228 7.709,13.157 7.595,13.095C7.482,13.034 7.352,12.978 7.206,12.929C7.061,12.88 6.913,12.827 6.762,12.77C6.612,12.713 6.464,12.649 6.318,12.578C6.173,12.506 6.043,12.417 5.929,12.311C5.815,12.205 5.723,12.079 5.654,11.932C5.584,11.786 5.549,11.609 5.549,11.402C5.549,11.212 5.585,11.032 5.656,10.862C5.727,10.692 5.838,10.543 5.99,10.416C6.142,10.289 6.336,10.188 6.574,10.113C6.812,10.038 7.099,10 7.436,10C7.535,10 7.638,10.004 7.745,10.013C7.853,10.022 7.959,10.033 8.064,10.046C8.169,10.06 8.271,10.076 8.368,10.094C8.465,10.113 8.555,10.132 8.636,10.152L8.636,10.984C8.555,10.954 8.466,10.927 8.37,10.902C8.274,10.878 8.174,10.856 8.072,10.838C7.969,10.819 7.866,10.805 7.762,10.795C7.659,10.785 7.56,10.78 7.466,10.78C7.302,10.78 7.163,10.793 7.049,10.819C6.935,10.845 6.841,10.881 6.768,10.926C6.695,10.972 6.641,11.028 6.608,11.095C6.576,11.161 6.559,11.235 6.559,11.317C6.559,11.418 6.594,11.505 6.664,11.577C6.733,11.65 6.825,11.715 6.941,11.773C7.056,11.831 7.186,11.885 7.332,11.936C7.477,11.987 7.626,12.041 7.78,12.099C7.933,12.157 8.082,12.223 8.227,12.297C8.373,12.371 8.503,12.461 8.618,12.567C8.734,12.673 8.826,12.798 8.896,12.942C8.965,13.086 9,13.257 9,13.454Z" style="fill:rgb(0,8,204);fill-rule:nonzero;"/>
</svg>
