<?xml version="1.0" encoding="UTF-8" standalone="no"?>
<!DOCTYPE svg PUBLIC "-//W3C//DTD SVG 1.1//EN" "http://www.w3.org/Graphics/SVG/1.1/DTD/svg11.dtd">
<svg width="100%" height="100%" viewBox="0 0 30 25" version="1.1" xmlns="http://www.w3.org/2000/svg" xmlns:xlink="http://www.w3.org/1999/xlink" xml:space="preserve" style="fill-rule:evenodd;clip-rule:evenodd;stroke-linejoin:round;stroke-miterlimit:1.41421;">
    <path id="Maximize" d="M20,8L20,17L10,17L10,8L20,8ZM19,10L11,10L11,16L19,16L19,10Z" style="fill:rgb(235,235,235);"/>
    <path id="Restore" d="M17,12L11,12L11,16L17,16L17,12ZM18,17L10,17L10,11L12,11L12,8L20,8L20,15L19,15L18,15L18,17ZM19,14L19,10L13,10L13,11L18,11L18,14L19,14Z" style="fill:rgb(235,235,235);"/>
    <path id="Close" d="M15,11.556L19,8L20,8L20,9L16.063,12.5L20,16L20,17L19,17L15,13.444L11,17L10,17L10,16L13.938,12.5L10,9L10,8L11,8L15,11.556Z" style="fill:rgb(235,235,235);"/>
    <rect id="Minimize" x="10" y="16" width="10" height="1" style="fill:rgb(235,235,235);"/>
</svg>
