<?xml version="1.0" encoding="UTF-8" standalone="no"?><!DOCTYPE svg PUBLIC "-//W3C//DTD SVG 1.1//EN" "http://www.w3.org/Graphics/SVG/1.1/DTD/svg11.dtd"><svg width="100%" height="100%" viewBox="0 0 15 15" version="1.1" xmlns="http://www.w3.org/2000/svg" xmlns:xlink="http://www.w3.org/1999/xlink" xml:space="preserve" style="fill-rule:evenodd;clip-rule:evenodd;stroke-linejoin:round;stroke-miterlimit:1.41421;">
<path id="FileOutline" d="M4.5,1.5c0,0 0,7.41 0,11.25c0,1.243 1.007,2.25 2.25,2.25c1.771,0 4.229,0 6,0c1.243,0 2.25,-1.007 2.25,-2.25c0,-2.983 0,-7.875 0,-7.875l-3.375,-3.375l-7.125,0Z" style="fill:#ccc;"/>
<path id="FileBg" d="M5.25,2.25c0,0 0,7.281 0,10.5c0,0.828 0.672,1.5 1.5,1.5c1.665,0 4.335,0 6,0c0.828,0 1.5,-0.672 1.5,-1.5c0,-2.56 0,-7.5 0,-7.5l-3,-3l-1.502,0l-4.498,0Z" style="fill:#4d4d4d;"/>
<path id="FileFg" d="M6,3c0,0 0,7.348 0,9.75c0,0.414 0.336,0.75 0.75,0.75c1.437,0 4.563,0 6,0c0.414,0 0.75,-0.336 0.75,-0.75c0,-1.899 0,-6.75 0,-6.75l-3,0l0,-3l-4.5,0Z" style="fill:#fff;"/>
<path id="ArrowOutline" d="M0,6c0,-0.995 0.395,-1.948 1.098,-2.652c0.704,-0.703 1.657,-1.098 2.652,-1.098c0.232,0 0.375,0 0.375,0l-2.25,-2.25l4.875,0l3.75,3.75l-3.75,3.75l-1.5,0l0,2.25c0,0 -0.654,0 -1.5,0c-0.995,0 -1.948,-0.395 -2.652,-1.098c-0.703,-0.704 -1.098,-1.657 -1.098,-2.652c0,0 0,0 0,0Z" style="fill:#ccc;"/>
<path id="ArrowFg" d="M0.75,6c0,-1.657 1.343,-3 3,-3c1.176,0 2.25,0 2.25,0l-2.25,-2.25l2.25,0l3,3l-3,3l-2.25,0l2.25,-2.25c0,0 -1.205,0 -2.248,0c-0.399,0 -0.781,0.158 -1.062,0.44c-0.282,0.281 -0.44,0.663 -0.44,1.062c0,0 0,0.001 0,0.001c0,0.397 0.158,0.778 0.438,1.059c0.281,0.28 0.662,0.438 1.059,0.438c0.414,0 0.753,0 0.753,0l0,1.5c0,0 -0.309,0 -0.75,0c-1.657,0 -3,-1.343 -3,-3c0,0 0,0 0,0Z" style="fill:#00539c;"/></svg>