<?xml version="1.0" encoding="UTF-8" standalone="no"?>
<!DOCTYPE svg PUBLIC "-//W3C//DTD SVG 1.1//EN" "http://www.w3.org/Graphics/SVG/1.1/DTD/svg11.dtd">
<svg width="100%" height="100%" viewBox="0 0 15 15" version="1.1" xmlns="http://www.w3.org/2000/svg" xmlns:xlink="http://www.w3.org/1999/xlink" xml:space="preserve" style="fill-rule:evenodd;clip-rule:evenodd;stroke-linejoin:round;stroke-miterlimit:1.41421;">
    <path id="TabsOutline" d="M0.75,0.75L0.75,14.25L14.25,14.25L14.25,3.751L13.5,3.75L13.5,1.5L8.25,1.5L8.25,0.749L0.75,0.75Z" style="fill:rgb(246,246,246);fill-rule:nonzero;"/>
    <path id="TabsBg" d="M1.5,13.5L13.5,13.5L13.5,4.5L12.75,4.5L12.75,2.25L7.5,2.25L7.5,1.5L1.5,1.5L1.5,13.5Z" style="fill:rgb(66,66,66);"/>
    <path id="TabsFg" d="M12.75,12.75L2.25,12.75L2.25,2.25L6.75,2.25L6.75,5.25L12.75,5.25L12.75,12.75Z" style="fill:white;"/>
    <path id="TabsLines" d="M3,10.5L8.25,10.5L8.25,11.25L3,11.25L3,10.5ZM3,7.5L9.75,7.5L9.75,8.25L3,8.25L3,7.5Z" style="fill:rgb(66,66,66);"/>
    <rect id="TabsActive" x="2.25" y="2.25" width="4.5" height="3" style="fill:rgb(13,40,242);"/>
</svg>
